<svg xmlns="http://www.w3.org/2000/svg" version="1.1" xmlns:xlink="http://www.w3.org/1999/xlink" xmlns:svgjs="http://svgjs.dev/svgjs" width="1000" height="623" viewBox="0 0 1000 623"><g transform="matrix(1,0,0,1,-0.6060606060606233,0.2522267206477409)"><svg viewBox="0 0 396 247" data-background-color="#ffffff" preserveAspectRatio="xMidYMid meet" height="623" width="1000" xmlns="http://www.w3.org/2000/svg" xmlns:xlink="http://www.w3.org/1999/xlink"><g id="tight-bounds" transform="matrix(1,0,0,1,0.2400000000000091,-0.09999999999999432)"><svg viewBox="0 0 395.52 247.2" height="247.2" width="395.52"><g><svg></svg></g><g><svg viewBox="0 0 395.52 247.2" height="247.2" width="395.52"><g transform="matrix(1,0,0,1,75.54432,82.58210667629015)"><svg viewBox="0 0 244.43135999999998 82.0357866474197" height="82.0357866474197" width="244.43135999999998"><g><svg viewBox="0 0 244.43135999999998 82.0357866474197" height="82.0357866474197" width="244.43135999999998"><g><svg viewBox="0 0 244.43135999999998 82.0357866474197" height="82.0357866474197" width="244.43135999999998"><g><svg viewBox="0 0 244.43135999999998 82.0357866474197" height="82.0357866474197" width="244.43135999999998"><g id="textblocktransform"><svg viewBox="0 0 244.43135999999998 82.0357866474197" height="82.0357866474197" width="244.43135999999998" id="textblock"><g><svg viewBox="0 0 244.43135999999998 82.0357866474197" height="82.0357866474197" width="244.43135999999998"><g transform="matrix(1,0,0,1,0,0)"><svg width="244.43135999999998" viewBox="1.2000000476837158 -36.45000076293945 138.54000854492188 46.5" height="82.0357866474197" data-palette-color="#0080ff"><path d="M25.2-34.25L25.2-34.25 23.25-29.8Q21.2-30.55 19.18-31 17.15-31.45 15.3-31.45L15.3-31.45Q12.15-31.45 10.28-30.15 8.4-28.85 8.4-26.85L8.4-26.85Q8.4-25.15 9.75-24.13 11.1-23.1 13.1-22.28 15.1-21.45 17.45-20.63 19.8-19.8 21.8-18.5 23.8-17.2 25.15-15.23 26.5-13.25 26.5-10.15L26.5-10.15Q26.5-7.75 25.63-5.83 24.75-3.9 23.03-2.5 21.3-1.1 18.73-0.35 16.15 0.4 12.7 0.4L12.7 0.4Q10.5 0.4 8.72 0.1 6.95-0.2 5.53-0.68 4.1-1.15 3.03-1.7 1.95-2.25 1.2-2.7L1.2-2.7 3.6-7.45Q5.6-6.3 8.05-5.6 10.5-4.9 12.5-4.9L12.5-4.9Q13.5-4.9 14.98-5.15 16.45-5.4 17.8-6.03 19.15-6.65 20.13-7.7 21.1-8.75 21.1-10.35L21.1-10.35Q21.1-11.8 20.33-12.83 19.55-13.85 18.28-14.63 17-15.4 15.38-16.03 13.75-16.65 12.05-17.32 10.35-18 8.72-18.75 7.1-19.5 5.83-20.58 4.55-21.65 3.78-23.08 3-24.5 3-26.5L3-26.5Q3-28.35 3.75-30.15 4.5-31.95 6-33.35 7.5-34.75 9.73-35.6 11.95-36.45 14.9-36.45L14.9-36.45Q16.7-36.45 18.43-36.15 20.15-35.85 21.55-35.48 22.95-35.1 23.93-34.75 24.9-34.4 25.2-34.25ZM45.5-5.55L48.7-2.45Q47.2-1.1 45.05-0.3 42.9 0.5 40.65 0.5L40.65 0.5Q38.35 0.5 36.32-0.38 34.3-1.25 32.8-2.73 31.3-4.2 30.42-6.2 29.55-8.2 29.55-10.45L29.55-10.45Q29.55-12.7 30.42-14.7 31.3-16.7 32.8-18.2 34.3-19.7 36.27-20.58 38.25-21.45 40.5-21.45L40.5-21.45Q44.05-21.45 46.67-19.33 49.3-17.2 50.45-13.75L50.45-13.75Q48.9-13.2 46.9-12.4 44.9-11.6 42.75-10.73 40.6-9.85 38.45-9 36.3-8.15 34.45-7.45L34.45-7.45Q35.3-5.75 36.92-4.73 38.55-3.7 40.55-3.7L40.55-3.7Q41.9-3.7 43.27-4.2 44.65-4.7 45.5-5.55L45.5-5.55ZM45.1-14.75L45.1-14.75Q44.5-16 43.2-16.63 41.9-17.25 40.55-17.25L40.55-17.25Q39.1-17.25 37.87-16.7 36.65-16.15 35.75-15.23 34.85-14.3 34.32-13.1 33.8-11.9 33.8-10.65L33.8-10.65Q33.8-10.4 33.82-10.3 33.85-10.2 33.85-10.15L33.85-10.15Q35.15-10.65 36.67-11.28 38.2-11.9 39.7-12.53 41.2-13.15 42.6-13.73 44-14.3 45.1-14.75ZM66.59-21.45L65.65-15.95Q64.25-15.95 62.95-15.58 61.65-15.2 60.62-14.45 59.6-13.7 59-12.58 58.4-11.45 58.4-10L58.4-10 58.4 0 54.15 0 54.15-20.9 57.9-20.9Q58-19.35 58.07-18.07 58.15-16.8 58.25-15.55L58.25-15.55Q58.9-16.9 59.95-18 61-19.1 62.2-19.85 63.4-20.6 64.55-21.03 65.7-21.45 66.59-21.45L66.59-21.45ZM67.89-10.4L67.89-10.4Q67.89-12.75 68.74-14.78 69.59-16.8 71.04-18.28 72.49-19.75 74.44-20.6 76.39-21.45 78.59-21.45L78.59-21.45Q80.29-21.45 81.62-21 82.94-20.55 83.84-19.95 84.74-19.35 85.27-18.78 85.79-18.2 85.94-17.95L85.94-17.95Q85.94-18.65 86.04-19.43 86.14-20.2 86.14-20.9L86.14-20.9 90.24-20.9 90.24-0.95Q90.24 4.25 87.19 7.15 84.14 10.05 78.94 10.05L78.94 10.05Q77.14 10.05 75.72 9.68 74.29 9.3 73.12 8.7 71.94 8.1 70.97 7.3 69.99 6.5 69.04 5.65L69.04 5.65 71.79 2.75Q73.34 4.2 74.97 5.05 76.59 5.9 78.84 5.9L78.84 5.9Q82.19 5.9 84.04 4.3 85.89 2.7 85.94-0.15L85.94-0.15 85.94-1.6Q85.94-2 86.04-2.48 86.14-2.95 86.14-3.2L86.14-3.2Q85.69-2.6 85.02-1.93 84.34-1.25 83.44-0.73 82.54-0.2 81.34 0.15 80.14 0.5 78.64 0.5L78.64 0.5Q76.29 0.5 74.34-0.35 72.39-1.2 70.94-2.68 69.49-4.15 68.69-6.13 67.89-8.1 67.89-10.4ZM72.19-10.5L72.19-10.5Q72.19-9.05 72.72-7.8 73.24-6.55 74.14-5.65 75.04-4.75 76.29-4.23 77.54-3.7 79.04-3.7L79.04-3.7Q80.54-3.7 81.82-4.23 83.09-4.75 84.02-5.68 84.94-6.6 85.44-7.83 85.94-9.05 85.94-10.5L85.94-10.5Q85.94-11.95 85.44-13.18 84.94-14.4 84.02-15.3 83.09-16.2 81.82-16.73 80.54-17.25 79.04-17.25L79.04-17.25Q77.54-17.25 76.29-16.73 75.04-16.2 74.14-15.3 73.24-14.4 72.72-13.18 72.19-11.95 72.19-10.5ZM110.74-5.55L113.94-2.45Q112.44-1.1 110.29-0.3 108.14 0.5 105.89 0.5L105.89 0.5Q103.59 0.5 101.57-0.38 99.54-1.25 98.04-2.73 96.54-4.2 95.67-6.2 94.79-8.2 94.79-10.45L94.79-10.45Q94.79-12.7 95.67-14.7 96.54-16.7 98.04-18.2 99.54-19.7 101.52-20.58 103.49-21.45 105.74-21.45L105.74-21.45Q109.29-21.45 111.92-19.33 114.54-17.2 115.69-13.75L115.69-13.75Q114.14-13.2 112.14-12.4 110.14-11.6 107.99-10.73 105.84-9.85 103.69-9 101.54-8.15 99.69-7.45L99.69-7.45Q100.54-5.75 102.17-4.73 103.79-3.7 105.79-3.7L105.79-3.7Q107.14-3.7 108.52-4.2 109.89-4.7 110.74-5.55L110.74-5.55ZM110.34-14.75L110.34-14.75Q109.74-16 108.44-16.63 107.14-17.25 105.79-17.25L105.79-17.25Q104.34-17.25 103.12-16.7 101.89-16.15 100.99-15.23 100.09-14.3 99.57-13.1 99.04-11.9 99.04-10.65L99.04-10.65Q99.04-10.4 99.07-10.3 99.09-10.2 99.09-10.15L99.09-10.15Q100.39-10.65 101.92-11.28 103.44-11.9 104.94-12.53 106.44-13.15 107.84-13.73 109.24-14.3 110.34-14.75ZM139.74-20.9L124.84 10.05 120.54 10.05Q121.24 8.6 121.86 7.28 122.49 5.95 123.11 4.58 123.74 3.2 124.39 1.73 125.04 0.25 125.84-1.45L125.84-1.45Q124.69-3.7 123.49-6.18 122.29-8.65 121.09-11.15 119.89-13.65 118.71-16.15 117.54-18.65 116.39-20.9L116.39-20.9 121.04-20.9Q122.84-17.35 124.01-14.9 125.19-12.45 125.96-10.68 126.74-8.9 127.21-7.65 127.69-6.4 128.04-5.35L128.04-5.35Q128.44-6.4 128.91-7.65 129.39-8.9 130.16-10.68 130.94-12.45 132.11-14.9 133.29-17.35 135.09-20.9L135.09-20.9 139.74-20.9Z" opacity="1" transform="matrix(1,0,0,1,0,0)" fill="#0080ff" class="wordmark-text-0" data-fill-palette-color="primary" id="text-0"></path></svg></g></svg></g></svg></g></svg></g></svg></g></svg></g></svg></g><path d="M214.214 76.582L214.214 21.834 10.681 21.834 10.681 225.366 214.214 225.366 214.214 170.618 206.815 170.618 206.815 217.968 18.079 217.968 18.079 29.232 206.815 29.232 206.815 76.582Z" fill="#0080ff" stroke="transparent" data-fill-palette-color="primary"></path></svg></g><defs></defs></svg><rect width="395.52" height="247.2" fill="none" stroke="none" visibility="hidden"></rect></g></svg></g></svg>